# xmcd CD database file
#
# Track frame offsets:
#	150
#	16580
#	67127
#	85485
#	157322
#	173520
#	199757
#
# Disc length: 3786 seconds
#
# Revision: 2
# Processed by: cddbd v1.4PL0 Copyright (c) Steve Scherf et al.
# Submitted via: CDex 1.50beta9
#
DISCID=570ec807
DTITLE=Isaac Hayes - The Best of Isaac Hayes, Vol. 2
DYEAR=1982
DGENRE=
TTITLE0=Never Can Say Goodbye
TTITLE1=Look Of Love
TTITLE2=Men Theme From
TTITLE3=Joy
TTITLE4=Let's Stay Together
TTITLE5=Ike's Mood
TTITLE6=By The Time I Get To Phoenix
EXTD=YEAR: 1982
EXTT0=
EXTT1=
EXTT2=
EXTT3=
EXTT4=
EXTT5=
EXTT6=
PLAYORDER=
